<svg width="224" height="224" viewBox="0 0 224 224" fill="none" xmlns="http://www.w3.org/2000/svg">
<rect width="224" height="224" rx="112" fill="#2563EB"/>
<path fill-rule="evenodd" clip-rule="evenodd" d="M111.5 200C160.377 200 200 160.377 200 111.5C200 62.6228 160.377 23 111.5 23C62.6228 23 23 62.6228 23 111.5C23 160.377 62.6228 200 111.5 200ZM111.92 28.521C111.92 28.521 111.943 29.4662 111.9 31.1396C111.871 29.4598 111.92 28.521 111.92 28.521ZM30.73 111.503C38.7191 111.381 67.21 109.425 90.2931 88.6832C109.414 71.5017 111.661 40.3324 111.9 31.1396C112.047 39.7463 114.235 67.8043 135.513 88.6832C158.064 110.811 182.667 112.072 191.294 111.739C181.794 112.67 153.321 116.881 135.513 134.69C114.091 156.111 112.116 187.085 111.937 193.335C111.954 186.689 110.845 152.131 86.7542 131.937C65.0923 113.779 38.4253 111.71 30.73 111.503ZM28.5581 111.49C28.5581 111.49 29.3302 111.466 30.73 111.503C29.3287 111.525 28.5581 111.49 28.5581 111.49ZM111.92 194.458C111.92 194.458 111.916 194.066 111.937 193.335C111.935 194.065 111.92 194.458 111.92 194.458ZM194.496 111.49C194.496 111.49 193.347 111.659 191.294 111.739C193.331 111.539 194.496 111.49 194.496 111.49Z" fill="white"/>
</svg>
